<svg version="1.1" id="Layer_1" xmlns="http://www.w3.org/2000/svg" xmlns:xlink="http://www.w3.org/1999/xlink" x="0px" y="0px"
	 width="100%" viewBox="0 0 2000 2000" enable-background="new 0 0 2000 2000" xml:space="preserve">
<path fill="#504E51" opacity="1.000000" stroke="none" 
	d="
M2001.000000,451.000000 
	C2001.000000,968.000000 2001.000000,1484.500000 2001.000000,2001.000000 
	C1334.333374,2001.000000 667.666687,2001.000000 1.000000,2001.000000 
	C1.000000,1334.333374 1.000000,667.666687 1.000000,1.000000 
	C667.666687,1.000000 1334.333374,1.000000 2001.000000,1.000000 
	C2001.000000,150.833328 2001.000000,300.666656 2001.000000,451.000000 
M1982.000000,1015.500000 
	C1982.000000,841.340149 1982.022949,667.180298 1981.957153,493.020447 
	C1981.951782,478.891998 1981.546997,464.755066 1980.955688,450.637634 
	C1980.164551,431.743622 1979.746704,412.788788 1977.805542,394.000885 
	C1975.851685,375.090668 1973.459229,356.055725 1969.007202,337.619202 
	C1964.066772,317.160339 1957.270508,297.063354 1950.024536,277.269196 
	C1940.910400,252.371567 1928.289429,229.063629 1913.832642,206.849243 
	C1901.590576,188.037796 1887.603760,170.570465 1872.579712,153.834991 
	C1857.180420,136.681595 1840.274414,121.250801 1821.903564,107.539680 
	C1807.557007,96.831985 1792.477051,87.021675 1777.204346,77.658577 
	C1746.202148,58.652481 1712.609863,45.569031 1677.625000,35.957150 
	C1649.704102,28.286091 1621.118164,24.383013 1592.351318,22.179127 
	C1572.824219,20.683115 1553.183350,20.093401 1533.593018,20.086460 
	C1194.937256,19.966486 856.281433,19.982786 517.625610,20.042751 
	C497.164124,20.046375 476.694397,20.407673 456.243622,21.069382 
	C435.514618,21.740095 414.730682,22.225737 394.107483,24.211775 
	C375.191376,26.033421 356.229126,28.719465 337.690277,32.838772 
	C297.486847,41.771923 259.671906,57.062111 224.010223,77.863380 
	C188.556030,98.543648 156.953247,123.760307 129.290573,154.092239 
	C108.944908,176.401138 91.060829,200.415314 76.173508,226.679459 
	C58.443020,257.959473 44.789082,290.900665 35.613522,325.680695 
	C29.211565,349.947418 25.121836,374.648956 23.157793,399.618805 
	C21.492872,420.785767 20.140690,442.045074 20.129459,463.264282 
	C19.946787,808.419800 19.985441,1153.575439 20.042454,1498.730957 
	C20.045366,1516.359131 20.413464,1533.996704 21.064468,1551.613037 
	C21.756620,1570.342896 22.227987,1589.133301 24.194447,1607.749512 
	C26.243782,1627.150146 28.745157,1646.666382 33.283382,1665.596313 
	C38.109142,1685.725586 44.859505,1705.483521 52.035446,1724.936768 
	C61.034958,1749.333496 73.256866,1772.293457 87.506783,1794.049438 
	C108.635460,1826.307617 133.401581,1855.380859 162.823563,1880.562378 
	C184.647232,1899.240845 207.870270,1915.746704 233.040268,1929.418579 
	C267.867310,1948.335693 304.436432,1962.987305 343.547119,1970.193481 
	C365.504333,1974.239136 387.659454,1977.623779 409.874817,1979.732422 
	C429.683563,1981.612793 449.697540,1981.905884 469.621307,1981.913696 
	C785.111145,1982.036377 1100.601074,1982.038208 1416.090942,1981.955566 
	C1459.551758,1981.944214 1503.012817,1981.381470 1546.472656,1980.966309 
	C1557.103271,1980.864746 1567.765991,1980.779541 1578.350586,1979.912720 
	C1598.477539,1978.264404 1618.599487,1976.398804 1638.649048,1974.000610 
	C1666.875610,1970.624146 1693.950806,1962.310669 1720.303711,1952.115967 
	C1751.570068,1940.020752 1781.198608,1924.470093 1808.409668,1904.710449 
	C1831.562622,1887.897827 1853.332886,1869.545898 1872.557007,1848.151855 
	C1892.620728,1825.823364 1911.094238,1802.371582 1925.248291,1775.896973 
	C1935.197144,1757.287964 1944.903198,1738.384521 1952.638062,1718.791504 
	C1967.344727,1681.538574 1975.748291,1642.576294 1978.849487,1602.630127 
	C1980.505859,1581.294922 1981.836670,1559.869751 1981.865967,1538.483032 
	C1982.104248,1364.489014 1982.000000,1190.494385 1982.000000,1015.500000 
z"/>
<path fill="#4A484B" opacity="1.000000" stroke="none" 
	d="
M1982.000000,1016.000000 
	C1982.000000,1190.494385 1982.104248,1364.489014 1981.865967,1538.483032 
	C1981.836670,1559.869751 1980.505859,1581.294922 1978.849487,1602.630127 
	C1975.748291,1642.576294 1967.344727,1681.538574 1952.638062,1718.791504 
	C1944.903198,1738.384521 1935.197144,1757.287964 1925.248291,1775.896973 
	C1911.094238,1802.371582 1892.620728,1825.823364 1872.557007,1848.151855 
	C1853.332886,1869.545898 1831.562622,1887.897827 1808.409668,1904.710449 
	C1781.198608,1924.470093 1751.570068,1940.020752 1720.303711,1952.115967 
	C1693.950806,1962.310669 1666.875610,1970.624146 1638.649048,1974.000610 
	C1618.599487,1976.398804 1598.477539,1978.264404 1578.350586,1979.912720 
	C1567.765991,1980.779541 1557.103271,1980.864746 1546.472656,1980.966309 
	C1503.012817,1981.381470 1459.551758,1981.944214 1416.090942,1981.955566 
	C1100.601074,1982.038208 785.111145,1982.036377 469.621307,1981.913696 
	C449.697540,1981.905884 429.683563,1981.612793 409.874817,1979.732422 
	C387.659454,1977.623779 365.504333,1974.239136 343.547119,1970.193481 
	C304.436432,1962.987305 267.867310,1948.335693 233.040268,1929.418579 
	C207.870270,1915.746704 184.647232,1899.240845 162.823563,1880.562378 
	C133.401581,1855.380859 108.635460,1826.307617 87.506783,1794.049438 
	C73.256866,1772.293457 61.034958,1749.333496 52.035446,1724.936768 
	C44.859505,1705.483521 38.109142,1685.725586 33.283382,1665.596313 
	C28.745157,1646.666382 26.243782,1627.150146 24.194447,1607.749512 
	C22.227987,1589.133301 21.756620,1570.342896 21.064468,1551.613037 
	C20.413464,1533.996704 20.045366,1516.359131 20.042454,1498.730957 
	C19.985441,1153.575439 19.946787,808.419800 20.129459,463.264282 
	C20.140690,442.045074 21.492872,420.785767 23.157793,399.618805 
	C25.121836,374.648956 29.211565,349.947418 35.613522,325.680695 
	C44.789082,290.900665 58.443020,257.959473 76.173508,226.679459 
	C91.060829,200.415314 108.944908,176.401138 129.290573,154.092239 
	C156.953247,123.760307 188.556030,98.543648 224.010223,77.863380 
	C259.671906,57.062111 297.486847,41.771923 337.690277,32.838772 
	C356.229126,28.719465 375.191376,26.033421 394.107483,24.211775 
	C414.730682,22.225737 435.514618,21.740095 456.243622,21.069382 
	C476.694397,20.407673 497.164124,20.046375 517.625610,20.042751 
	C856.281433,19.982786 1194.937256,19.966486 1533.593018,20.086460 
	C1553.183350,20.093401 1572.824219,20.683115 1592.351318,22.179127 
	C1621.118164,24.383013 1649.704102,28.286091 1677.625000,35.957150 
	C1712.609863,45.569031 1746.202148,58.652481 1777.204346,77.658577 
	C1792.477051,87.021675 1807.557007,96.831985 1821.903564,107.539680 
	C1840.274414,121.250801 1857.180420,136.681595 1872.579712,153.834991 
	C1887.603760,170.570465 1901.590576,188.037796 1913.832642,206.849243 
	C1928.289429,229.063629 1940.910400,252.371567 1950.024536,277.269196 
	C1957.270508,297.063354 1964.066772,317.160339 1969.007202,337.619202 
	C1973.459229,356.055725 1975.851685,375.090668 1977.805542,394.000885 
	C1979.746704,412.788788 1980.164551,431.743622 1980.955688,450.637634 
	C1981.546997,464.755066 1981.951782,478.891998 1981.957153,493.020447 
	C1982.022949,667.180298 1982.000000,841.340149 1982.000000,1016.000000 
M46.000458,1432.500000 
	C46.333454,1478.796265 46.351246,1525.098022 47.163063,1571.385864 
	C47.464691,1588.584106 49.391056,1605.771851 50.996635,1622.924927 
	C53.281319,1647.333130 59.294868,1670.965454 66.939293,1694.189453 
	C74.922874,1718.444092 85.581841,1741.487305 98.250877,1763.669067 
	C111.827499,1787.439941 127.891907,1809.426392 146.285156,1829.556030 
	C169.235703,1854.673584 195.009247,1876.641968 223.824524,1894.952026 
	C249.075439,1910.997192 275.722992,1924.141602 304.014404,1933.787842 
	C328.573608,1942.161499 353.655975,1948.650024 379.580109,1951.066162 
	C400.196594,1952.987793 420.861755,1955.775635 441.507172,1955.791870 
	C807.335327,1956.078979 1173.163818,1956.027466 1538.992188,1955.915649 
	C1556.583008,1955.910278 1574.202148,1955.093750 1591.755371,1953.887329 
	C1606.770874,1952.855591 1621.772827,1951.151367 1636.671143,1948.988892 
	C1673.491699,1943.644287 1708.561646,1932.246338 1741.630005,1915.419189 
	C1759.354614,1906.399780 1776.443604,1895.895752 1792.921753,1884.736084 
	C1806.335571,1875.651733 1818.984741,1865.219238 1830.952393,1854.269043 
	C1849.361694,1837.424927 1866.104004,1818.951050 1880.858521,1798.704834 
	C1897.779419,1775.486084 1912.258545,1750.863647 1923.572021,1724.502930 
	C1936.662964,1694.000977 1946.354980,1662.387451 1950.022095,1629.286743 
	C1952.611084,1605.918457 1955.722412,1582.424561 1955.748047,1558.983643 
	C1956.116699,1222.988525 1956.033447,886.992920 1955.955933,550.997437 
	C1955.946655,510.869141 1955.675171,470.733887 1954.840820,430.616089 
	C1954.483154,413.415955 1952.661865,396.224152 1950.991943,379.078583 
	C1948.534668,353.847778 1942.303101,329.406647 1934.248047,305.430450 
	C1926.384033,282.023560 1916.029053,259.748779 1903.735107,238.318375 
	C1890.118164,214.581497 1874.125854,192.541504 1855.707520,172.427139 
	C1832.387573,146.960236 1806.224854,124.690720 1776.889893,106.244934 
	C1752.565063,90.949570 1726.991211,78.269981 1699.853394,68.870407 
	C1674.691284,60.155235 1648.987061,53.465733 1622.402100,50.935345 
	C1601.955200,48.989189 1581.454102,46.224323 1560.975342,46.208305 
	C1195.147217,45.922104 829.318665,45.972698 463.490326,46.084789 
	C445.732819,46.090229 427.947113,46.904873 410.227173,48.113995 
	C395.211578,49.138584 380.208893,50.845081 365.311737,53.014095 
	C328.665588,58.349754 293.717926,69.595757 260.799438,86.360481 
	C242.928986,95.461555 225.699066,106.047691 209.061752,117.270744 
	C195.769073,126.237595 183.233765,136.549744 171.375885,147.375031 
	C145.980911,170.558594 123.986626,196.747040 105.667000,225.931290 
	C90.663445,249.832840 78.291260,275.032562 69.009644,301.674469 
	C60.195633,326.974121 53.405617,352.823120 50.937843,379.586700 
	C48.990959,400.701141 46.228539,421.867859 46.209381,443.013489 
	C45.910877,772.508789 46.000458,1102.004395 46.000458,1432.500000 
z"/>
<path fill="#434143" opacity="1.000000" stroke="none" 
	d="
M46.000458,1432.000000 
	C46.000458,1102.004395 45.910877,772.508789 46.209381,443.013489 
	C46.228539,421.867859 48.990959,400.701141 50.937843,379.586700 
	C53.405617,352.823120 60.195633,326.974121 69.009644,301.674469 
	C78.291260,275.032562 90.663445,249.832840 105.667000,225.931290 
	C123.986626,196.747040 145.980911,170.558594 171.375885,147.375031 
	C183.233765,136.549744 195.769073,126.237595 209.061752,117.270744 
	C225.699066,106.047691 242.928986,95.461555 260.799438,86.360481 
	C293.717926,69.595757 328.665588,58.349754 365.311737,53.014095 
	C380.208893,50.845081 395.211578,49.138584 410.227173,48.113995 
	C427.947113,46.904873 445.732819,46.090229 463.490326,46.084789 
	C829.318665,45.972698 1195.147217,45.922104 1560.975342,46.208305 
	C1581.454102,46.224323 1601.955200,48.989189 1622.402100,50.935345 
	C1648.987061,53.465733 1674.691284,60.155235 1699.853394,68.870407 
	C1726.991211,78.269981 1752.565063,90.949570 1776.889893,106.244934 
	C1806.224854,124.690720 1832.387573,146.960236 1855.707520,172.427139 
	C1874.125854,192.541504 1890.118164,214.581497 1903.735107,238.318375 
	C1916.029053,259.748779 1926.384033,282.023560 1934.248047,305.430450 
	C1942.303101,329.406647 1948.534668,353.847778 1950.991943,379.078583 
	C1952.661865,396.224152 1954.483154,413.415955 1954.840820,430.616089 
	C1955.675171,470.733887 1955.946655,510.869141 1955.955933,550.997437 
	C1956.033447,886.992920 1956.116699,1222.988525 1955.748047,1558.983643 
	C1955.722412,1582.424561 1952.611084,1605.918457 1950.022095,1629.286743 
	C1946.354980,1662.387451 1936.662964,1694.000977 1923.572021,1724.502930 
	C1912.258545,1750.863647 1897.779419,1775.486084 1880.858521,1798.704834 
	C1866.104004,1818.951050 1849.361694,1837.424927 1830.952393,1854.269043 
	C1818.984741,1865.219238 1806.335571,1875.651733 1792.921753,1884.736084 
	C1776.443604,1895.895752 1759.354614,1906.399780 1741.630005,1915.419189 
	C1708.561646,1932.246338 1673.491699,1943.644287 1636.671143,1948.988892 
	C1621.772827,1951.151367 1606.770874,1952.855591 1591.755371,1953.887329 
	C1574.202148,1955.093750 1556.583008,1955.910278 1538.992188,1955.915649 
	C1173.163818,1956.027466 807.335327,1956.078979 441.507172,1955.791870 
	C420.861755,1955.775635 400.196594,1952.987793 379.580109,1951.066162 
	C353.655975,1948.650024 328.573608,1942.161499 304.014404,1933.787842 
	C275.722992,1924.141602 249.075439,1910.997192 223.824524,1894.952026 
	C195.009247,1876.641968 169.235703,1854.673584 146.285156,1829.556030 
	C127.891907,1809.426392 111.827499,1787.439941 98.250877,1763.669067 
	C85.581841,1741.487305 74.922874,1718.444092 66.939293,1694.189453 
	C59.294868,1670.965454 53.281319,1647.333130 50.996635,1622.924927 
	C49.391056,1605.771851 47.464691,1588.584106 47.163063,1571.385864 
	C46.351246,1525.098022 46.333454,1478.796265 46.000458,1432.000000 
M73.840538,809.919189 
	C73.840553,874.117554 73.839859,938.315918 73.848396,1002.514282 
	C73.848503,1003.341675 73.966026,1004.169067 73.848259,1005.919800 
	C73.850311,1070.950562 73.851837,1135.981201 73.861679,1201.011963 
	C73.861778,1201.673462 73.971497,1202.335083 73.858734,1203.921387 
	C73.857979,1264.130737 73.851326,1324.340210 73.864296,1384.549561 
	C73.865837,1391.698242 73.974541,1398.847046 73.873344,1406.922485 
	C73.896255,1464.997192 73.878792,1523.072144 73.993027,1581.146606 
	C74.007362,1588.427124 74.716644,1595.706177 74.996536,1603.877319 
	C76.819748,1617.535767 77.983482,1631.321411 80.591133,1644.828369 
	C88.094719,1683.694946 102.145111,1720.187744 122.270653,1754.282349 
	C132.913681,1772.312622 144.572296,1789.648560 159.181641,1805.648560 
	C171.391693,1817.904907 183.014145,1830.823120 195.926804,1842.288330 
	C228.929382,1871.591064 266.642578,1893.177002 308.219757,1907.950317 
	C347.986176,1922.080444 388.998322,1928.219482 431.201050,1928.203125 
	C809.825317,1928.056763 1188.449585,1928.097168 1567.073853,1928.167969 
	C1590.262573,1928.172241 1613.299194,1927.004272 1636.179321,1923.030762 
	C1669.199463,1917.296021 1700.775024,1907.129761 1730.845337,1892.379150 
	C1759.414429,1878.364746 1785.713745,1860.863037 1809.421509,1839.627441 
	C1825.309570,1825.395874 1840.385010,1810.335449 1853.526855,1792.616089 
	C1860.224487,1783.133179 1867.280029,1773.880493 1873.554810,1764.125366 
	C1894.996338,1730.791138 1909.981812,1694.686890 1919.011719,1656.098145 
	C1926.025879,1626.123535 1929.024658,1595.760254 1928.089966,1564.064819 
	C1928.120483,1496.701172 1928.151855,1429.337646 1928.172607,1361.973999 
	C1928.172852,1360.981201 1928.038452,1359.988281 1928.098145,1358.066406 
	C1928.130859,1286.368774 1928.164429,1214.671021 1928.186890,1142.973389 
	C1928.187256,1141.981079 1928.045532,1140.988892 1928.112183,1139.068604 
	C1928.145020,1068.702881 1928.178711,998.337219 1928.200439,927.971558 
	C1928.200684,926.980042 1928.051636,925.988464 1928.123047,924.070129 
	C1928.155396,844.703003 1928.188599,765.335938 1928.209595,685.968811 
	C1928.209839,684.977844 1928.054199,683.986938 1928.127441,682.070129 
	C1928.160522,599.036377 1928.194702,516.002563 1928.216309,432.968811 
	C1928.216553,431.978302 1928.058472,430.987701 1928.141113,429.072662 
	C1927.096802,414.213776 1926.304321,399.331390 1924.922852,384.503937 
	C1923.946899,374.030212 1922.789062,363.502350 1920.645264,353.221161 
	C1912.541382,314.353699 1898.152588,277.863373 1877.523315,243.928543 
	C1866.633423,226.014587 1854.626587,208.864609 1839.931641,192.962387 
	C1823.624146,174.340347 1805.533813,157.621246 1785.586670,142.994049 
	C1722.459473,96.703102 1651.706421,73.750664 1573.404663,73.759857 
	C1191.760864,73.804665 810.117126,73.789124 428.473358,73.759171 
	C404.244019,73.757263 380.241150,75.850121 356.485840,80.639801 
	C310.568695,89.897873 268.159821,107.617973 229.359818,133.826691 
	C202.717133,151.823364 178.735886,172.861984 157.661407,198.008926 
	C156.676208,199.135223 155.659317,200.235519 154.710373,201.391602 
	C118.852371,245.077057 94.437187,294.371765 82.000565,349.559204 
	C77.589134,369.134918 75.154167,388.954437 74.076744,409.906036 
	C73.993637,476.609528 73.909943,543.312988 73.835854,610.016479 
	C73.835121,610.676697 73.961601,611.336975 73.833908,612.917908 
	C73.833549,677.450745 73.832451,741.983582 73.840973,806.516418 
	C73.841087,807.343384 73.963593,808.170349 73.840538,809.919189 
z"/>
<path fill="#B39773" opacity="1.000000" stroke="none" 
	d="
M1852.977417,1792.992188 
	C1840.385010,1810.335449 1825.309570,1825.395874 1809.421509,1839.627441 
	C1785.713745,1860.863037 1759.414429,1878.364746 1730.845337,1892.379150 
	C1700.775024,1907.129761 1669.199463,1917.296021 1636.179321,1923.030762 
	C1613.299194,1927.004272 1590.262573,1928.172241 1567.073853,1928.167969 
	C1188.449585,1928.097168 809.825317,1928.056763 431.201050,1928.203125 
	C388.998322,1928.219482 347.986176,1922.080444 308.219757,1907.950317 
	C266.642578,1893.177002 228.929382,1871.591064 195.926804,1842.288330 
	C183.014145,1830.823120 171.391693,1817.904907 159.521561,1805.329712 
	C184.277298,1805.007202 208.693176,1804.973022 233.108810,1805.038696 
	C236.135834,1805.046875 238.508591,1804.802124 238.353180,1801.016357 
	C244.941116,1806.096313 251.052109,1811.275391 257.508636,1815.980225 
	C317.920837,1860.002075 385.605408,1881.086060 460.286133,1881.058960 
	C819.419189,1880.928101 1178.552368,1881.040405 1537.685425,1880.876587 
	C1554.963989,1880.868774 1572.333130,1879.869751 1589.502197,1877.933228 
	C1632.380859,1873.097046 1672.441650,1859.231689 1710.092773,1838.236450 
	C1733.341919,1825.272095 1754.423218,1809.348999 1774.698608,1791.778076 
	C1777.770142,1792.256348 1780.382690,1792.941772 1782.997681,1792.950928 
	C1806.324097,1793.032593 1829.650757,1792.994873 1852.977417,1792.992188 
z"/>
<path fill="#FAF1D4" opacity="1.000000" stroke="none" 
	d="
M158.178802,197.679886 
	C178.735886,172.861984 202.717133,151.823364 229.359818,133.826691 
	C268.159821,107.617973 310.568695,89.897873 356.485840,80.639801 
	C380.241150,75.850121 404.244019,73.757263 428.473358,73.759171 
	C810.117126,73.789124 1191.760864,73.804665 1573.404663,73.759857 
	C1651.706421,73.750664 1722.459473,96.703102 1785.586670,142.994049 
	C1805.533813,157.621246 1823.624146,174.340347 1839.963867,193.679092 
	C1838.096802,195.263992 1836.202148,196.875946 1834.297485,196.887817 
	C1809.247314,197.044052 1784.195557,196.974640 1758.815430,196.864990 
	C1753.885010,193.193542 1749.375732,189.492264 1744.668091,186.063370 
	C1684.306519,142.098129 1616.712402,120.905396 1542.097656,120.928986 
	C1182.187378,121.042770 822.277100,120.941811 462.366882,121.102692 
	C445.753448,121.110115 429.054382,122.142654 412.544708,124.015739 
	C369.894043,128.854614 329.685425,142.011002 292.644928,163.596191 
	C274.464142,174.190964 257.691467,187.201996 239.796234,199.086945 
	C214.853943,199.036438 190.396759,199.057739 165.940216,198.942978 
	C163.351151,198.930817 160.765854,198.120117 158.178802,197.679886 
z"/>
<path fill="#F3E8CA" opacity="1.000000" stroke="none" 
	d="
M1759.144287,196.961761 
	C1784.195557,196.974640 1809.247314,197.044052 1834.297485,196.887817 
	C1836.202148,196.875946 1838.096802,195.263992 1840.084717,193.978882 
	C1854.626587,208.864609 1866.633423,226.014587 1877.523315,243.928543 
	C1898.152588,277.863373 1912.541382,314.353699 1920.645264,353.221161 
	C1922.789062,363.502350 1923.946899,374.030212 1924.922852,384.503937 
	C1926.304321,399.331390 1927.096802,414.213776 1927.590820,429.535431 
	C1911.414673,429.994720 1895.788940,429.991272 1880.074951,429.556000 
	C1877.674072,414.061310 1875.997559,398.867767 1872.934937,383.958954 
	C1861.722168,329.375061 1837.376221,281.031738 1801.058472,238.979492 
	C1788.161255,224.045914 1773.176270,210.915359 1759.144287,196.961761 
z"/>
<path fill="#BBA17E" opacity="1.000000" stroke="none" 
	d="
M1853.252197,1792.804199 
	C1829.650757,1792.994873 1806.324097,1793.032593 1782.997681,1792.950928 
	C1780.382690,1792.941772 1777.770142,1792.256348 1774.902222,1791.490967 
	C1782.587769,1782.745972 1790.795044,1774.629150 1798.388184,1765.973633 
	C1805.261353,1758.138916 1811.765259,1749.935913 1817.912598,1741.516235 
	C1849.382812,1698.411743 1868.828857,1650.297241 1876.995483,1597.624268 
	C1878.673706,1586.799438 1879.561646,1575.851929 1881.294067,1564.971924 
	C1897.173096,1564.986938 1912.571777,1564.991089 1927.970581,1564.995361 
	C1929.024658,1595.760254 1926.025879,1626.123535 1919.011719,1656.098145 
	C1909.981812,1694.686890 1894.996338,1730.791138 1873.554810,1764.125366 
	C1867.280029,1773.880493 1860.224487,1783.133179 1853.252197,1792.804199 
z"/>
<path fill="#F3E7CA" opacity="1.000000" stroke="none" 
	d="
M157.920105,197.844406 
	C160.765854,198.120117 163.351151,198.930817 165.940216,198.942978 
	C190.396759,199.057739 214.853943,199.036438 239.645172,199.394135 
	C195.800308,237.361084 162.955566,283.086426 142.613968,337.475739 
	C137.193024,351.970245 133.192459,367.030182 129.165009,381.998718 
	C126.789719,390.826813 125.642181,399.985229 123.477432,408.996277 
	C106.759430,408.991943 90.506485,408.986420 74.253540,408.980865 
	C75.154167,388.954437 77.589134,369.134918 82.000565,349.559204 
	C94.437187,294.371765 118.852371,245.077057 154.710373,201.391602 
	C155.659317,200.235519 156.676208,199.135223 157.920105,197.844406 
z"/>
<path fill="#BAA07D" opacity="1.000000" stroke="none" 
	d="
M238.036530,1800.895264 
	C238.508591,1804.802124 236.135834,1805.046875 233.108810,1805.038696 
	C208.693176,1804.973022 184.277298,1805.007202 159.385437,1805.020752 
	C144.572296,1789.648560 132.913681,1772.312622 122.270653,1754.282349 
	C102.145111,1720.187744 88.094719,1683.694946 80.591133,1644.828369 
	C77.983482,1631.321411 76.819748,1617.535767 75.510872,1603.436523 
	C92.573822,1602.946533 109.122444,1602.897583 125.800117,1603.195801 
	C129.755310,1625.881592 135.755035,1647.618408 144.116196,1668.685181 
	C161.438995,1712.331665 186.070312,1751.221191 219.714111,1784.174072 
	C225.617386,1789.956421 231.918945,1795.331909 238.036530,1800.895264 
z"/>
<path fill="#E9DBBC" opacity="1.000000" stroke="none" 
	d="
M1880.163208,429.987793 
	C1895.788940,429.991272 1911.414673,429.994720 1927.507324,429.997681 
	C1928.058472,430.987701 1928.216553,431.978302 1928.216309,432.968811 
	C1928.194702,516.002563 1928.160522,599.036377 1927.582642,682.534058 
	C1911.750732,682.993958 1896.463501,682.990051 1881.112549,682.522217 
	C1880.753540,598.034790 1880.458374,514.011292 1880.163208,429.987793 
z"/>
<path fill="#DFCEAE" opacity="1.000000" stroke="none" 
	d="
M1881.176392,682.986145 
	C1896.463501,682.990051 1911.750732,682.993958 1927.504517,682.996948 
	C1928.054199,683.986938 1928.209839,684.977844 1928.209595,685.968811 
	C1928.188599,765.335938 1928.155396,844.703003 1927.580933,924.534546 
	C1911.751099,924.995239 1896.463379,924.991455 1881.111938,924.523621 
	C1881.031738,844.862000 1881.014404,765.664490 1881.006104,686.466919 
	C1881.005981,685.306641 1881.117188,684.146423 1881.176392,682.986145 
z"/>
<path fill="#CDB796" opacity="1.000000" stroke="none" 
	d="
M1927.970215,1139.996582 
	C1928.045532,1140.988892 1928.187256,1141.981079 1928.186890,1142.973389 
	C1928.164429,1214.671021 1928.130859,1286.368774 1927.566406,1358.532715 
	C1911.747070,1358.994873 1896.459473,1358.990845 1881.109863,1358.522827 
	C1881.031006,1286.362427 1881.013306,1214.666138 1881.004517,1142.969849 
	C1881.004395,1141.975952 1881.115112,1140.981934 1881.631836,1139.991577 
	C1897.383057,1139.995605 1912.676636,1139.996094 1927.970215,1139.996582 
z"/>
<path fill="#D6C2A2" opacity="1.000000" stroke="none" 
	d="
M1928.041138,1139.532593 
	C1912.676636,1139.996094 1897.383057,1139.995605 1881.568848,1139.527466 
	C1881.031738,1068.696289 1881.014526,998.332703 1881.006226,927.969177 
	C1881.006104,926.975342 1881.116821,925.981506 1881.175659,924.987671 
	C1896.463379,924.991455 1911.751099,924.995239 1927.505493,924.997925 
	C1928.051636,925.988464 1928.200684,926.980042 1928.200439,927.971558 
	C1928.178711,998.337219 1928.145020,1068.702881 1928.041138,1139.532593 
z"/>
<path fill="#C5AD8A" opacity="1.000000" stroke="none" 
	d="
M1881.171875,1358.986938 
	C1896.459473,1358.990845 1911.747070,1358.994873 1927.500732,1358.997192 
	C1928.038452,1359.988281 1928.172852,1360.981201 1928.172607,1361.973999 
	C1928.151855,1429.337646 1928.120483,1496.701172 1928.030273,1564.530029 
	C1912.571777,1564.991089 1897.173096,1564.986938 1881.243408,1564.507812 
	C1880.806885,1497.675781 1880.899658,1431.318726 1881.002441,1364.961792 
	C1881.005493,1362.970093 1881.113037,1360.978516 1881.171875,1358.986938 
z"/>
<path fill="#EBDDBE" opacity="1.000000" stroke="none" 
	d="
M74.165146,409.443451 
	C90.506485,408.986420 106.759430,408.991943 123.537369,409.428528 
	C123.037552,429.621155 121.518394,449.372559 121.112183,469.146820 
	C120.595940,494.277374 121.001060,519.426514 120.973137,544.567627 
	C120.948174,567.041626 120.874603,589.515564 120.364952,611.992493 
	C104.614525,611.996033 89.321609,611.996643 74.028702,611.997253 
	C73.961601,611.336975 73.835121,610.676697 73.835854,610.016479 
	C73.909943,543.312988 73.993637,476.609528 74.165146,409.443451 
z"/>
<path fill="#CBB493" opacity="1.000000" stroke="none" 
	d="
M74.033562,1405.995728 
	C73.974541,1398.847046 73.865837,1391.698242 73.864296,1384.549561 
	C73.851326,1324.340210 73.857979,1264.130737 74.410782,1203.460449 
	C90.250809,1202.995728 105.538780,1202.992065 120.901550,1203.452393 
	C120.978058,1258.303345 120.989426,1312.690186 120.974419,1367.076904 
	C120.970840,1380.047119 120.879234,1393.017212 120.370247,1405.991211 
	C104.619446,1405.995239 89.326500,1405.995483 74.033562,1405.995728 
z"/>
<path fill="#C3AA88" opacity="1.000000" stroke="none" 
	d="
M73.953453,1406.459106 
	C89.326500,1405.995483 104.619446,1405.995239 120.444366,1406.455566 
	C120.979332,1452.810181 120.972572,1498.703979 120.989876,1544.597900 
	C120.997246,1564.137573 121.593445,1583.634033 125.671059,1602.848511 
	C109.122444,1602.897583 92.573822,1602.946533 75.564568,1602.990723 
	C74.716644,1595.706177 74.007362,1588.427124 73.993027,1581.146606 
	C73.878792,1523.072144 73.896255,1464.997192 73.953453,1406.459106 
z"/>
<path fill="#D3BF9E" opacity="1.000000" stroke="none" 
	d="
M120.826767,1202.988281 
	C105.538780,1202.992065 90.250809,1202.995728 74.496429,1202.998047 
	C73.971497,1202.335083 73.861778,1201.673462 73.861679,1201.011963 
	C73.851837,1135.981201 73.850311,1070.950562 74.405060,1005.459351 
	C90.249603,1004.995483 105.537338,1004.992188 120.900238,1005.453003 
	C120.977295,1056.808594 120.990662,1107.700195 120.973946,1158.591675 
	C120.969086,1173.390503 120.878212,1188.189453 120.826767,1202.988281 
z"/>
<path fill="#E3D3B3" opacity="1.000000" stroke="none" 
	d="
M73.931305,612.457581 
	C89.321609,611.996643 104.614525,611.996033 120.441299,612.456360 
	C120.976273,662.810730 120.989403,712.704224 120.971359,762.597656 
	C120.965759,778.061584 120.875420,793.525452 120.366264,808.992554 
	C104.615425,808.996216 89.322189,808.996765 74.028961,808.997314 
	C73.963593,808.170349 73.841087,807.343384 73.840973,806.516418 
	C73.832451,741.983582 73.833549,677.450745 73.931305,612.457581 
z"/>
<path fill="#DBC9A8" opacity="1.000000" stroke="none" 
	d="
M73.934753,809.458252 
	C89.322189,808.996765 104.615425,808.996216 120.441978,809.456482 
	C120.977119,858.812134 120.991699,907.707031 120.973526,956.601868 
	C120.967529,972.730896 120.876968,988.859863 120.825073,1004.988892 
	C105.537338,1004.992188 90.249603,1004.995483 74.495308,1004.997681 
	C73.966026,1004.169067 73.848503,1003.341675 73.848396,1002.514282 
	C73.839859,938.315918 73.840553,874.117554 73.934753,809.458252 
z"/>
<path fill="#131E28" opacity="1.000000" stroke="none" 
	d="
M120.900238,1005.453003 
	C120.876968,988.859863 120.967529,972.730896 120.973526,956.601868 
	C120.991699,907.707031 120.977119,858.812134 120.899590,809.453369 
	C120.875420,793.525452 120.965759,778.061584 120.971359,762.597656 
	C120.989403,712.704224 120.976273,662.810730 120.898819,612.453430 
	C120.874603,589.515564 120.948174,567.041626 120.973137,544.567627 
	C121.001060,519.426514 120.595940,494.277374 121.112183,469.146820 
	C121.518394,449.372559 123.037552,429.621155 124.002426,409.427368 
	C125.642181,399.985229 126.789719,390.826813 129.165009,381.998718 
	C133.192459,367.030182 137.193024,351.970245 142.613968,337.475739 
	C162.955566,283.086426 195.800308,237.361084 240.130463,199.426712 
	C257.691467,187.201996 274.464142,174.190964 292.644928,163.596191 
	C329.685425,142.011002 369.894043,128.854614 412.544708,124.015739 
	C429.054382,122.142654 445.753448,121.110115 462.366882,121.102692 
	C822.277100,120.941811 1182.187378,121.042770 1542.097656,120.928986 
	C1616.712402,120.905396 1684.306519,142.098129 1744.668091,186.063370 
	C1749.375732,189.492264 1753.885010,193.193542 1758.815430,196.864990 
	C1773.176270,210.915359 1788.161255,224.045914 1801.058472,238.979492 
	C1837.376221,281.031738 1861.722168,329.375061 1872.934937,383.958954 
	C1875.997559,398.867767 1877.674072,414.061310 1880.074951,429.556000 
	C1880.458374,514.011292 1880.753540,598.034790 1881.112549,682.522217 
	C1881.117188,684.146423 1881.005981,685.306641 1881.006104,686.466919 
	C1881.014404,765.664490 1881.031738,844.862000 1881.111938,924.523621 
	C1881.116821,925.981506 1881.006104,926.975342 1881.006226,927.969177 
	C1881.014526,998.332703 1881.031738,1068.696289 1881.111084,1139.523926 
	C1881.115112,1140.981934 1881.004395,1141.975952 1881.004517,1142.969849 
	C1881.013306,1214.666138 1881.031006,1286.362427 1881.109863,1358.522827 
	C1881.113037,1360.978516 1881.005493,1362.970093 1881.002441,1364.961792 
	C1880.899658,1431.318726 1880.806885,1497.675781 1880.763184,1564.496826 
	C1879.561646,1575.851929 1878.673706,1586.799438 1876.995483,1597.624268 
	C1868.828857,1650.297241 1849.382812,1698.411743 1817.912598,1741.516235 
	C1811.765259,1749.935913 1805.261353,1758.138916 1798.388184,1765.973633 
	C1790.795044,1774.629150 1782.587769,1782.745972 1774.444458,1791.384521 
	C1754.423218,1809.348999 1733.341919,1825.272095 1710.092773,1838.236450 
	C1672.441650,1859.231689 1632.380859,1873.097046 1589.502197,1877.933228 
	C1572.333130,1879.869751 1554.963989,1880.868774 1537.685425,1880.876587 
	C1178.552368,1881.040405 819.419189,1880.928101 460.286133,1881.058960 
	C385.605408,1881.086060 317.920837,1860.002075 257.508636,1815.980225 
	C251.052109,1811.275391 244.941116,1806.096313 238.353165,1801.016357 
	C231.918945,1795.331909 225.617386,1789.956421 219.714111,1784.174072 
	C186.070312,1751.221191 161.438995,1712.331665 144.116196,1668.685181 
	C135.755035,1647.618408 129.755310,1625.881592 125.800117,1603.195801 
	C121.593445,1583.634033 120.997246,1564.137573 120.989876,1544.597900 
	C120.972572,1498.703979 120.979332,1452.810181 120.902229,1406.451904 
	C120.879234,1393.017212 120.970840,1380.047119 120.974419,1367.076904 
	C120.989426,1312.690186 120.978058,1258.303345 120.901558,1203.452393 
	C120.878212,1188.189453 120.969086,1173.390503 120.973946,1158.591675 
	C120.990662,1107.700195 120.977295,1056.808594 120.900238,1005.453003 
M962.973694,1159.078003 
	C960.164795,1156.724976 957.697388,1153.580322 954.473389,1152.189819 
	C948.404602,1149.572266 941.849060,1148.109497 935.588013,1145.904785 
	C927.282837,1142.980591 917.999695,1140.686890 915.194763,1130.924683 
	C913.493713,1125.004395 912.581848,1118.361206 913.373047,1112.312012 
	C915.907166,1092.938721 910.116272,1076.254517 897.464417,1062.245239 
	C884.527771,1047.920654 867.429932,1044.309937 849.117188,1048.650879 
	C835.726379,1051.825073 822.751343,1056.724731 809.526855,1060.638550 
	C799.994324,1063.459839 790.355103,1066.856567 780.280945,1063.775024 
	C772.995850,1061.546631 766.029419,1058.287842 758.767090,1055.970581 
	C750.601501,1053.365112 742.351685,1049.798096 733.982056,1049.304932 
	C714.747375,1048.171631 701.024597,1058.008179 692.218567,1074.670288 
	C681.008789,1095.880615 681.003845,1118.335449 685.548340,1141.216675 
	C687.169861,1149.380859 690.858154,1156.456299 695.218323,1163.134277 
	C682.747925,1165.654663 670.277527,1168.174927 657.807068,1170.695190 
	C657.902344,1171.193481 657.997620,1171.691895 658.092896,1172.190186 
	C660.741455,1172.046265 663.390686,1171.913696 666.038452,1171.756714 
	C686.633606,1170.535522 707.220886,1168.430542 727.824951,1168.251587 
	C787.411133,1167.733643 847.009583,1167.514526 906.591125,1168.211548 
	C926.289917,1168.442017 945.979309,1171.582031 965.617188,1173.870728 
	C973.652832,1174.807251 981.540527,1177.012695 989.731323,1178.689209 
	C982.642090,1170.007080 978.749146,1167.269897 962.973694,1159.078003 
M1213.109497,930.912476 
	C1187.085571,930.054993 1161.061768,929.197449 1134.904785,928.335571 
	C1134.904785,941.917114 1134.904785,954.930664 1134.904785,968.407959 
	C1161.514160,967.859253 1187.753052,967.318176 1214.918823,966.932434 
	C1265.382690,965.983154 1315.846680,965.048889 1366.309570,964.047119 
	C1369.329590,963.987122 1371.347534,964.211975 1372.706909,967.714417 
	C1380.446167,987.654297 1395.105347,999.148743 1416.401123,1001.346069 
	C1437.260010,1003.498291 1453.670288,994.902100 1464.777832,977.656494 
	C1476.950928,958.756348 1476.471558,938.903015 1463.726685,920.475098 
	C1452.154785,903.743530 1435.429688,895.817322 1414.940430,898.495300 
	C1394.441650,901.174438 1380.190674,912.606628 1372.662598,931.997070 
	C1371.613647,934.698914 1370.469727,935.825439 1367.314331,935.711365 
	C1332.025391,934.435791 1296.730957,933.306274 1261.435181,932.228394 
	C1245.625122,931.745544 1229.808960,931.467529 1213.109497,930.912476 
M792.931396,966.946045 
	C818.763062,966.946045 844.594727,966.946045 870.436523,966.946045 
	C870.436523,954.557556 870.436523,941.672852 870.436523,928.230591 
	C844.075500,929.188782 818.039551,930.135193 791.078735,930.915894 
	C740.283386,932.473206 689.485779,933.965454 638.696899,935.710571 
	C634.595093,935.851440 633.343994,934.201355 632.115295,930.915649 
	C623.913391,908.982117 599.629333,894.679199 577.117126,898.355530 
	C551.908691,902.472229 533.121643,922.805237 532.082153,947.096313 
	C530.992310,972.567383 548.414795,995.349670 573.105530,1000.739319 
	C597.929749,1006.158203 623.160339,992.318787 632.451172,968.001770 
	C633.559937,965.099792 634.792236,963.909058 638.082825,963.991638 
	C663.069031,964.618652 688.060242,965.056641 713.050842,965.496399 
	C739.369019,965.959473 765.688354,966.359070 792.931396,966.946045 
M925.239075,689.719727 
	C915.500977,688.477417 905.745728,687.355347 896.027832,685.971375 
	C860.469604,680.907166 825.399658,673.367004 791.237427,662.378479 
	C769.992554,655.544983 749.336426,646.833374 728.561096,638.598633 
	C697.138550,626.143799 667.818054,609.572266 638.370483,591.801819 
	C636.576843,590.345642 634.869507,588.764343 632.973755,587.456299 
	C626.767090,583.173828 620.247192,579.308350 614.284973,574.715149 
	C586.856995,553.584900 559.730286,532.061401 532.190857,511.078827 
	C513.632324,496.938812 494.264771,484.005341 471.712097,476.795990 
	C454.025940,471.142242 436.070129,469.216400 418.256134,475.327728 
	C387.592926,485.847107 369.026611,519.506775 374.440338,552.661804 
	C377.783386,573.135803 386.973877,590.788452 399.330566,606.956299 
	C424.333496,639.670959 455.796448,665.204468 490.267059,687.176270 
	C540.696899,719.320679 594.441345,744.683411 651.029053,763.905396 
	C671.475159,770.850647 692.334106,776.580811 713.738037,783.141785 
	C732.078125,787.478943 750.273621,792.612976 768.790894,795.974121 
	C799.779541,801.599121 830.888550,806.737549 862.108337,810.857117 
	C886.820374,814.118042 911.756042,815.785889 936.628662,817.686890 
	C949.709229,818.686646 962.867615,818.669312 976.833069,819.351501 
	C997.952087,818.806458 1019.176575,819.408508 1040.168457,817.479980 
	C1085.195679,813.343384 1130.142700,808.231079 1175.037720,802.814392 
	C1190.820557,800.910217 1206.354858,796.948486 1222.793945,793.998596 
	C1269.078369,783.726929 1314.650269,770.942139 1359.327148,755.050781 
	C1420.476807,733.300293 1479.349731,706.927673 1532.496338,669.058655 
	C1558.148193,650.780762 1581.369019,629.902893 1600.108154,604.418091 
	C1613.427490,586.303894 1624.416260,567.019226 1627.494629,544.229492 
	C1630.439087,522.431885 1625.261230,503.625610 1607.116211,489.610748 
	C1588.425903,475.174591 1567.115845,471.567322 1544.344116,474.464325 
	C1523.884033,477.067169 1505.386230,485.374023 1487.591431,495.293945 
	C1459.884766,510.739349 1434.404297,529.527649 1409.537598,549.054688 
	C1366.416016,582.916992 1320.175659,611.560059 1270.487061,634.684631 
	C1239.685059,649.019592 1207.891724,660.562195 1174.064697,668.715149 
	C1135.362915,677.680908 1096.599121,686.328369 1057.009521,690.507446 
	C1031.007324,693.252197 1004.968567,695.083801 978.795105,693.337830 
	C961.202209,692.164368 943.600037,691.129333 925.239075,689.719727 
M932.833923,616.997803 
	C942.592896,617.983887 952.334229,619.218567 962.114014,619.911316 
	C996.860229,622.372375 1031.655640,622.852478 1066.278809,618.811340 
	C1088.503296,616.217285 1110.528320,611.916382 1133.401367,608.358398 
	C1153.846313,602.224304 1174.862915,597.516113 1194.594849,589.604004 
	C1220.683350,579.142883 1245.756226,566.152832 1271.294312,554.311279 
	C1273.887939,553.108704 1274.792725,551.514709 1274.767944,548.558228 
	C1274.424072,507.574310 1274.316040,466.588379 1273.962280,425.604553 
	C1273.812500,408.256470 1272.159058,391.052155 1267.861572,374.159058 
	C1259.901733,342.869965 1231.747925,319.942902 1199.529297,318.607452 
	C1179.615967,317.782074 1161.836182,324.932953 1144.709595,333.807526 
	C1130.572144,341.133179 1117.061035,349.660950 1102.989502,357.122406 
	C1092.853882,362.496826 1082.487427,367.605225 1071.791504,371.703796 
	C1061.808350,375.529266 1051.254883,377.866058 1040.108032,380.815979 
	C1019.703003,384.901886 999.196777,385.448334 978.525452,383.083801 
	C952.434631,380.099335 926.814941,374.777649 903.254639,363.130615 
	C885.450989,354.329376 868.758911,343.260254 851.676758,333.025879 
	C840.207397,326.154327 828.445129,320.152679 814.187500,317.975128 
	C806.550720,317.706635 798.528748,315.786255 791.345154,317.461365 
	C763.254211,324.011627 743.246399,339.835205 735.965332,369.216919 
	C729.549622,395.106171 728.011047,421.523041 727.154053,447.960876 
	C726.037231,482.412659 725.722534,516.891235 725.249939,551.360840 
	C725.227783,552.972107 726.630615,555.437256 728.037537,556.111694 
	C762.699341,572.727661 798.190491,587.265930 835.250610,597.688904 
	C866.989807,606.615479 899.199768,613.244202 932.833923,616.997803 
M1271.814453,1597.069214 
	C1272.522217,1600.463623 1274.637817,1601.160278 1277.958374,1601.136475 
	C1300.285034,1600.976562 1322.613647,1601.061279 1344.941528,1601.044189 
	C1346.316284,1601.043091 1347.690796,1600.852051 1349.558350,1600.712646 
	C1275.809448,1442.746460 1202.325195,1285.346802 1128.562256,1127.349976 
	C1055.723633,1285.465088 983.191284,1442.915283 910.340332,1601.057251 
	C912.538452,1601.057251 913.968628,1601.057495 915.398865,1601.057373 
	C936.727051,1601.055664 958.055847,1600.969482 979.382690,1601.136597 
	C982.869202,1601.163818 984.556641,1600.109131 986.097046,1596.918213 
	C1002.708435,1562.508789 1019.572205,1528.221313 1036.187744,1493.813721 
	C1037.893677,1490.281250 1039.869995,1489.194092 1043.748291,1489.210449 
	C1083.738037,1489.379395 1123.728638,1489.323730 1163.718994,1489.330566 
	C1165.495972,1489.330811 1167.272949,1489.330566 1169.649780,1489.330566 
	C1168.324463,1485.795288 1167.237305,1482.895386 1166.846802,1479.813721 
	C1170.568970,1475.064941 1170.035278,1469.816650 1169.033813,1464.312378 
	C1164.768066,1440.866699 1147.586548,1424.560303 1124.306396,1421.929321 
	C1118.720825,1421.298096 1113.113892,1420.541382 1107.639526,1419.300903 
	C1094.311523,1416.280762 1090.100586,1409.664551 1093.873047,1396.386719 
	C1096.221069,1388.122437 1099.531128,1380.051392 1103.182617,1372.255981 
	C1108.734253,1360.403809 1114.588745,1348.657471 1121.037109,1337.275391 
	C1124.717529,1330.778931 1131.516724,1329.737427 1137.129761,1334.733887 
	C1141.094971,1338.263794 1144.445435,1342.981567 1146.740967,1347.802002 
	C1155.677368,1366.567139 1164.117065,1385.569580 1172.679321,1404.511841 
	C1187.883301,1438.147827 1202.955933,1471.843628 1218.255615,1505.436035 
	C1225.893677,1522.206665 1234.003418,1538.761963 1241.729004,1555.493530 
	C1247.717896,1568.463745 1253.173950,1581.720215 1263.199707,1592.310669 
	C1265.363159,1594.596069 1266.923462,1598.258911 1271.814453,1597.069214 
M1380.503174,1145.694214 
	C1376.391724,1145.694214 1372.280151,1145.694214 1367.794800,1145.694214 
	C1367.794800,1147.154175 1367.794922,1148.125732 1367.794922,1149.097290 
	C1367.797485,1248.080688 1367.798096,1347.064209 1367.803833,1446.047607 
	C1367.805542,1476.778931 1374.967896,1505.740479 1390.043579,1532.527954 
	C1409.172241,1566.516602 1436.589355,1591.742188 1472.180664,1607.756836 
	C1507.124634,1623.480225 1543.594116,1627.107788 1581.022339,1619.458984 
	C1608.329834,1613.878418 1632.966064,1602.122437 1654.760010,1584.678101 
	C1679.040283,1565.243286 1697.050171,1541.054443 1708.692139,1512.214600 
	C1718.045532,1489.043823 1721.344238,1464.847900 1721.296997,1439.935181 
	C1721.114868,1343.785034 1721.226685,1247.634155 1721.228882,1151.483643 
	C1721.228882,1149.697510 1721.228760,1147.911377 1721.228760,1146.036621 
	C1695.717773,1146.036621 1670.681396,1146.036621 1645.272705,1146.036621 
	C1645.272705,1148.350098 1645.272583,1150.320679 1645.272583,1152.291138 
	C1645.274414,1249.441528 1645.189819,1346.592041 1645.327759,1443.742188 
	C1645.372559,1475.336426 1634.238525,1501.758179 1610.721313,1522.982056 
	C1568.652100,1560.948608 1499.331055,1554.333862 1465.124268,1509.161743 
	C1450.397217,1489.713623 1443.643921,1467.945923 1443.685669,1443.610718 
	C1443.852295,1346.460571 1443.757568,1249.310059 1443.759399,1152.159668 
	C1443.759399,1150.196655 1443.759277,1148.233521 1443.759277,1145.694458 
	C1422.715820,1145.694458 1402.109619,1145.694458 1380.503174,1145.694214 
M489.095154,1148.605591 
	C419.704895,1299.282715 350.314636,1449.959717 280.733307,1601.051758 
	C304.254272,1601.051758 327.079559,1600.942383 349.901642,1601.162842 
	C353.571136,1601.198242 355.040527,1599.756348 356.484039,1596.783447 
	C373.174591,1562.409180 390.034454,1528.116943 406.675568,1493.718750 
	C408.274811,1490.412964 410.012421,1489.201050 413.743439,1489.215576 
	C453.903076,1489.372314 494.063538,1489.323120 534.223755,1489.330200 
	C536.028198,1489.330444 537.832581,1489.330322 540.091614,1489.330322 
	C539.352844,1487.468018 538.848755,1486.095337 538.270325,1484.754517 
	C531.228516,1468.434692 524.052979,1452.170532 517.227173,1435.760864 
	C515.820557,1432.379395 514.048279,1431.489746 510.603333,1431.512207 
	C487.441315,1431.662964 464.277924,1431.603516 441.114960,1431.612061 
	C439.545441,1431.612671 437.975891,1431.612183 435.794434,1431.612183 
	C457.435089,1382.199951 478.746094,1333.540405 500.373077,1284.159424 
	C501.244385,1286.021362 501.674591,1286.915649 502.083923,1287.819336 
	C548.697449,1390.714111 595.325684,1493.602051 641.847656,1596.538086 
	C643.338684,1599.837036 644.944153,1601.208008 648.743652,1601.155518 
	C665.904358,1600.918213 683.070068,1601.051147 700.234009,1601.051025 
	C706.655029,1601.050903 713.075989,1601.051025 720.086243,1601.051025 
	C646.300476,1443.010376 572.803223,1285.587769 498.935913,1127.372437 
	C495.417084,1134.968628 492.417023,1141.444946 489.095154,1148.605591 
M850.093506,1573.500000 
	C850.093506,1454.595215 850.093506,1335.690430 850.093506,1216.798828 
	C824.438904,1216.798828 799.386169,1216.798828 774.353333,1216.798828 
	C774.353333,1347.271973 774.353333,1477.356079 774.353333,1607.659668 
	C799.643799,1607.659668 824.698547,1607.659668 850.093506,1607.659668 
	C850.093506,1596.432373 850.093506,1585.466187 850.093506,1573.500000 
M981.726257,1017.908142 
	C998.233643,1022.223877 1014.402649,1021.409058 1029.992798,1014.258667 
	C1059.931274,1000.527588 1076.582397,968.728027 1070.523438,937.192810 
	C1064.256714,904.576416 1037.675537,881.271851 1004.436035,879.251831 
	C962.620178,876.710571 926.567505,913.560913 930.673401,955.205811 
	C933.784119,986.757080 951.165771,1007.344360 981.726257,1017.908142 
M655.472961,1172.492310 
	C655.472961,1172.492310 655.510071,1172.518921 655.472961,1172.492310 
z"/>
<path fill="#FEFEFE" opacity="1.000000" stroke="none" 
	d="
M1381.003296,1145.694336 
	C1402.109619,1145.694458 1422.715820,1145.694458 1443.759277,1145.694458 
	C1443.759277,1148.233521 1443.759399,1150.196655 1443.759399,1152.159668 
	C1443.757568,1249.310059 1443.852295,1346.460571 1443.685669,1443.610718 
	C1443.643921,1467.945923 1450.397217,1489.713623 1465.124268,1509.161743 
	C1499.331055,1554.333862 1568.652100,1560.948608 1610.721313,1522.982056 
	C1634.238525,1501.758179 1645.372559,1475.336426 1645.327759,1443.742188 
	C1645.189819,1346.592041 1645.274414,1249.441528 1645.272583,1152.291138 
	C1645.272583,1150.320679 1645.272705,1148.350098 1645.272705,1146.036621 
	C1670.681396,1146.036621 1695.717773,1146.036621 1721.228760,1146.036621 
	C1721.228760,1147.911377 1721.228882,1149.697510 1721.228882,1151.483643 
	C1721.226685,1247.634155 1721.114868,1343.785034 1721.296997,1439.935181 
	C1721.344238,1464.847900 1718.045532,1489.043823 1708.692139,1512.214600 
	C1697.050171,1541.054443 1679.040283,1565.243286 1654.760010,1584.678101 
	C1632.966064,1602.122437 1608.329834,1613.878418 1581.022339,1619.458984 
	C1543.594116,1627.107788 1507.124634,1623.480225 1472.180664,1607.756836 
	C1436.589355,1591.742188 1409.172241,1566.516602 1390.043579,1532.527954 
	C1374.967896,1505.740479 1367.805542,1476.778931 1367.803833,1446.047607 
	C1367.798096,1347.064209 1367.797485,1248.080688 1367.794922,1149.097290 
	C1367.794922,1148.125732 1367.794800,1147.154175 1367.794800,1145.694214 
	C1372.280151,1145.694214 1376.391724,1145.694214 1381.003296,1145.694336 
z"/>
<path fill="#F9EBC3" opacity="1.000000" stroke="none" 
	d="
M1174.891235,668.718079 
	C1207.891724,660.562195 1239.685059,649.019592 1270.487061,634.684631 
	C1320.175659,611.560059 1366.416016,582.916992 1409.537598,549.054688 
	C1434.404297,529.527649 1459.884766,510.739349 1487.591431,495.293945 
	C1505.386230,485.374023 1523.884033,477.067169 1544.344116,474.464325 
	C1567.115845,471.567322 1588.425903,475.174591 1607.116211,489.610748 
	C1625.261230,503.625610 1630.439087,522.431885 1627.494629,544.229492 
	C1624.416260,567.019226 1613.427490,586.303894 1600.108154,604.418091 
	C1581.369019,629.902893 1558.148193,650.780762 1532.496338,669.058655 
	C1479.349731,706.927673 1420.476807,733.300293 1359.327148,755.050781 
	C1314.650269,770.942139 1269.078369,783.726929 1222.344482,793.598083 
	C1207.241211,756.416687 1192.549927,719.650574 1177.981934,682.835693 
	C1176.207520,678.351318 1172.971191,674.061768 1174.891235,668.718079 
z"/>
<path fill="#FEFEFE" opacity="1.000000" stroke="none" 
	d="
M1166.150269,1479.995483 
	C1167.237305,1482.895386 1168.324463,1485.795288 1169.649780,1489.330566 
	C1167.272949,1489.330566 1165.495972,1489.330811 1163.718994,1489.330566 
	C1123.728638,1489.323730 1083.738037,1489.379395 1043.748291,1489.210449 
	C1039.869995,1489.194092 1037.893677,1490.281250 1036.187744,1493.813721 
	C1019.572205,1528.221313 1002.708435,1562.508789 986.097046,1596.918213 
	C984.556641,1600.109131 982.869202,1601.163818 979.382690,1601.136597 
	C958.055847,1600.969482 936.727051,1601.055664 915.398865,1601.057373 
	C913.968628,1601.057495 912.538452,1601.057251 910.340332,1601.057251 
	C983.191284,1442.915283 1055.723633,1285.465088 1128.562256,1127.349976 
	C1202.325195,1285.346802 1275.809448,1442.746460 1349.558350,1600.712646 
	C1347.690796,1600.852051 1346.316284,1601.043091 1344.941528,1601.044189 
	C1322.613647,1601.061279 1300.285034,1600.976562 1277.958374,1601.136475 
	C1274.637817,1601.160278 1272.522217,1600.463623 1271.481201,1596.459229 
	C1263.857666,1579.918579 1256.534058,1564.003052 1249.285645,1548.053589 
	C1239.705078,1526.972778 1230.192627,1505.861084 1220.633423,1484.770508 
	C1212.532837,1466.898071 1204.398315,1449.040894 1196.295410,1431.169434 
	C1186.665771,1409.931030 1177.015503,1388.701782 1167.444702,1367.436890 
	C1157.912964,1346.259033 1148.479248,1325.037109 1138.979126,1303.844971 
	C1136.172485,1297.584229 1133.287354,1291.358521 1129.994141,1284.143799 
	C1108.220337,1333.770508 1086.905151,1382.352173 1065.299438,1431.595825 
	C1068.162109,1431.595825 1069.963745,1431.596313 1071.765259,1431.595703 
	C1094.415161,1431.587524 1117.065918,1431.678955 1139.714111,1431.474731 
	C1143.590820,1431.439697 1145.541016,1432.457886 1147.091919,1436.174927 
	C1153.224731,1450.873535 1159.762573,1465.403198 1166.150269,1479.995483 
z"/>
<path fill="#FEFEFE" opacity="1.000000" stroke="none" 
	d="
M489.256042,1148.263428 
	C492.417023,1141.444946 495.417084,1134.968628 498.935913,1127.372437 
	C572.803223,1285.587769 646.300476,1443.010376 720.086243,1601.051025 
	C713.075989,1601.051025 706.655029,1601.050903 700.234009,1601.051025 
	C683.070068,1601.051147 665.904358,1600.918213 648.743652,1601.155518 
	C644.944153,1601.208008 643.338684,1599.837036 641.847656,1596.538086 
	C595.325684,1493.602051 548.697449,1390.714111 502.083923,1287.819336 
	C501.674591,1286.915649 501.244385,1286.021362 500.373077,1284.159424 
	C478.746094,1333.540405 457.435089,1382.199951 435.794434,1431.612183 
	C437.975891,1431.612183 439.545441,1431.612671 441.114960,1431.612061 
	C464.277924,1431.603516 487.441315,1431.662964 510.603333,1431.512207 
	C514.048279,1431.489746 515.820557,1432.379395 517.227173,1435.760864 
	C524.052979,1452.170532 531.228516,1468.434692 538.270325,1484.754517 
	C538.848755,1486.095337 539.352844,1487.468018 540.091614,1489.330322 
	C537.832581,1489.330322 536.028198,1489.330444 534.223755,1489.330200 
	C494.063538,1489.323120 453.903076,1489.372314 413.743439,1489.215576 
	C410.012421,1489.201050 408.274811,1490.412964 406.675568,1493.718750 
	C390.034454,1528.116943 373.174591,1562.409180 356.484039,1596.783447 
	C355.040527,1599.756348 353.571136,1601.198242 349.901642,1601.162842 
	C327.079559,1600.942383 304.254272,1601.051758 280.733307,1601.051758 
	C350.314636,1449.959717 419.704895,1299.282715 489.256042,1148.263428 
z"/>
<path fill="#E6D1AB" opacity="1.000000" stroke="none" 
	d="
M713.004639,782.865417 
	C692.334106,776.580811 671.475159,770.850647 651.029053,763.905396 
	C594.441345,744.683411 540.696899,719.320679 490.267059,687.176270 
	C455.796448,665.204468 424.333496,639.670959 399.330566,606.956299 
	C386.973877,590.788452 377.783386,573.135803 374.440338,552.661804 
	C369.026611,519.506775 387.592926,485.847107 418.256134,475.327728 
	C436.070129,469.216400 454.025940,471.142242 471.712097,476.795990 
	C494.264771,484.005341 513.632324,496.938812 532.190857,511.078827 
	C559.730286,532.061401 586.856995,553.584900 614.284973,574.715149 
	C620.247192,579.308350 626.767090,583.173828 632.973755,587.456299 
	C634.869507,588.764343 636.576843,590.345642 638.685791,592.338623 
	C639.291504,594.489746 639.314758,596.210754 639.910767,597.702942 
	C662.016785,653.048035 684.203247,708.360901 706.289917,763.713623 
	C708.794800,769.991211 710.778992,776.476440 713.004639,782.865417 
z"/>
<path fill="#F1E2BC" opacity="1.000000" stroke="none" 
	d="
M1132.642822,608.380615 
	C1110.528320,611.916382 1088.503296,616.217285 1066.278809,618.811340 
	C1031.655640,622.852478 996.860229,622.372375 962.114014,619.911316 
	C952.334229,619.218567 942.592896,617.983887 932.409058,616.529846 
	C931.111938,613.915405 930.231506,611.772278 929.368835,609.621887 
	C905.659668,550.522644 881.925476,491.433380 858.254517,432.318848 
	C843.916199,396.511078 829.645752,360.675934 815.475037,324.801666 
	C814.704590,322.851135 815.136414,320.425659 815.008545,318.221252 
	C828.445129,320.152679 840.207397,326.154327 851.676758,333.025879 
	C868.758911,343.260254 885.450989,354.329376 903.254639,363.130615 
	C926.814941,374.777649 952.434631,380.099335 978.525452,383.083801 
	C999.196777,385.448334 1019.703003,384.901886 1040.586670,381.218384 
	C1047.362061,397.715057 1053.557739,413.849701 1059.973999,429.896179 
	C1081.322266,483.286865 1102.717651,536.658691 1124.189819,589.999695 
	C1126.705200,596.248352 1129.810791,602.259399 1132.642822,608.380615 
z"/>
<path fill="#F8EAC2" opacity="1.000000" stroke="none" 
	d="
M1133.022095,608.369507 
	C1129.810791,602.259399 1126.705200,596.248352 1124.189819,589.999695 
	C1102.717651,536.658691 1081.322266,483.286865 1059.973999,429.896179 
	C1053.557739,413.849701 1047.362061,397.715057 1041.008789,381.239441 
	C1051.254883,377.866058 1061.808350,375.529266 1071.791504,371.703796 
	C1082.487427,367.605225 1092.853882,362.496826 1102.989502,357.122406 
	C1117.061035,349.660950 1130.572144,341.133179 1144.709595,333.807526 
	C1161.836182,324.932953 1179.615967,317.782074 1199.529297,318.607452 
	C1231.747925,319.942902 1259.901733,342.869965 1267.861572,374.159058 
	C1272.159058,391.052155 1273.812500,408.256470 1273.962280,425.604553 
	C1274.316040,466.588379 1274.424072,507.574310 1274.767944,548.558228 
	C1274.792725,551.514709 1273.887939,553.108704 1271.294312,554.311279 
	C1245.756226,566.152832 1220.683350,579.142883 1194.594849,589.604004 
	C1174.862915,597.516113 1153.846313,602.224304 1133.022095,608.369507 
z"/>
<path fill="#E9D8B3" opacity="1.000000" stroke="none" 
	d="
M713.371338,783.003601 
	C710.778992,776.476440 708.794800,769.991211 706.289917,763.713623 
	C684.203247,708.360901 662.016785,653.048035 639.910767,597.702942 
	C639.314758,596.210754 639.291504,594.489746 639.001099,592.470398 
	C667.818054,609.572266 697.138550,626.143799 728.561096,638.598633 
	C749.336426,646.833374 769.992554,655.544983 791.237427,662.378479 
	C825.399658,673.367004 860.469604,680.907166 896.027832,685.971375 
	C905.745728,687.355347 915.500977,688.477417 925.630737,690.260376 
	C926.465881,692.394775 926.763245,694.047119 927.374207,695.573853 
	C940.315674,727.911438 953.347656,760.212952 966.225708,792.575684 
	C969.709229,801.329956 972.747925,810.261230 975.990845,819.111206 
	C962.867615,818.669312 949.709229,818.686646 936.628662,817.686890 
	C911.756042,815.785889 886.820374,814.118042 862.108337,810.857117 
	C830.888550,806.737549 799.779541,801.599121 768.790894,795.974121 
	C750.273621,792.612976 732.078125,787.478943 713.371338,783.003601 
z"/>
<path fill="#EADAB6" opacity="1.000000" stroke="none" 
	d="
M814.598022,318.098206 
	C815.136414,320.425659 814.704590,322.851135 815.475037,324.801666 
	C829.645752,360.675934 843.916199,396.511078 858.254517,432.318848 
	C881.925476,491.433380 905.659668,550.522644 929.368835,609.621887 
	C930.231506,611.772278 931.111938,613.915405 931.996582,616.428223 
	C899.199768,613.244202 866.989807,606.615479 835.250610,597.688904 
	C798.190491,587.265930 762.699341,572.727661 728.037537,556.111694 
	C726.630615,555.437256 725.227783,552.972107 725.249939,551.360840 
	C725.722534,516.891235 726.037231,482.412659 727.154053,447.960876 
	C728.011047,421.523041 729.549622,395.106171 735.965332,369.216919 
	C743.246399,339.835205 763.254211,324.011627 791.345154,317.461365 
	C798.528748,315.786255 806.550720,317.706635 814.598022,318.098206 
z"/>
<path fill="#F1E2BC" opacity="1.000000" stroke="none" 
	d="
M976.411926,819.231323 
	C972.747925,810.261230 969.709229,801.329956 966.225708,792.575684 
	C953.347656,760.212952 940.315674,727.911438 927.374207,695.573853 
	C926.763245,694.047119 926.465881,692.394775 926.012207,690.416687 
	C943.600037,691.129333 961.202209,692.164368 978.795105,693.337830 
	C1004.968567,695.083801 1031.007324,693.252197 1057.009521,690.507446 
	C1096.599121,686.328369 1135.362915,677.680908 1174.478027,668.716614 
	C1172.971191,674.061768 1176.207520,678.351318 1177.981934,682.835693 
	C1192.549927,719.650574 1207.241211,756.416687 1221.948975,793.561890 
	C1206.354858,796.948486 1190.820557,800.910217 1175.037720,802.814392 
	C1130.142700,808.231079 1085.195679,813.343384 1040.168457,817.479980 
	C1019.176575,819.408508 997.952087,818.806458 976.411926,819.231323 
z"/>
<path fill="#FEFEFE" opacity="1.000000" stroke="none" 
	d="
M850.093506,1574.000000 
	C850.093506,1585.466187 850.093506,1596.432373 850.093506,1607.659668 
	C824.698547,1607.659668 799.643799,1607.659668 774.353333,1607.659668 
	C774.353333,1477.356079 774.353333,1347.271973 774.353333,1216.798828 
	C799.386169,1216.798828 824.438904,1216.798828 850.093506,1216.798828 
	C850.093506,1335.690430 850.093506,1454.595215 850.093506,1574.000000 
z"/>
<path fill="#E8DABC" opacity="1.000000" stroke="none" 
	d="
M792.007141,966.786377 
	C765.688354,966.359070 739.369019,965.959473 713.050842,965.496399 
	C688.060242,965.056641 663.069031,964.618652 638.082825,963.991638 
	C634.792236,963.909058 633.559937,965.099792 632.451172,968.001770 
	C623.160339,992.318787 597.929749,1006.158203 573.105530,1000.739319 
	C548.414795,995.349670 530.992310,972.567383 532.082153,947.096313 
	C533.121643,922.805237 551.908691,902.472229 577.117126,898.355530 
	C599.629333,894.679199 623.913391,908.982117 632.115295,930.915649 
	C633.343994,934.201355 634.595093,935.851440 638.696899,935.710571 
	C689.485779,933.965454 740.283386,932.473206 791.539978,931.462036 
	C792.003235,943.600952 792.005188,955.193665 792.007141,966.786377 
z"/>
<path fill="#E8DABC" opacity="1.000000" stroke="none" 
	d="
M1213.995483,931.096497 
	C1229.808960,931.467529 1245.625122,931.745544 1261.435181,932.228394 
	C1296.730957,933.306274 1332.025391,934.435791 1367.314331,935.711365 
	C1370.469727,935.825439 1371.613647,934.698914 1372.662598,931.997070 
	C1380.190674,912.606628 1394.441650,901.174438 1414.940430,898.495300 
	C1435.429688,895.817322 1452.154785,903.743530 1463.726685,920.475098 
	C1476.471558,938.903015 1476.950928,958.756348 1464.777832,977.656494 
	C1453.670288,994.902100 1437.260010,1003.498291 1416.401123,1001.346069 
	C1395.105347,999.148743 1380.446167,987.654297 1372.706909,967.714417 
	C1371.347534,964.211975 1369.329590,963.987122 1366.309570,964.047119 
	C1315.846680,965.048889 1265.382690,965.983154 1214.455811,966.400513 
	C1213.993652,954.277832 1213.994507,942.687195 1213.995483,931.096497 
z"/>
<path fill="#F0ECDD" opacity="1.000000" stroke="none" 
	d="
M981.331421,1017.811768 
	C951.165771,1007.344360 933.784119,986.757080 930.673401,955.205811 
	C926.567505,913.560913 962.620178,876.710571 1004.436035,879.251831 
	C1037.675537,881.271851 1064.256714,904.576416 1070.523438,937.192810 
	C1076.582397,968.728027 1059.931274,1000.527588 1029.992798,1014.258667 
	C1014.402649,1021.409058 998.233643,1022.223877 981.331421,1017.811768 
M974.122375,962.176453 
	C979.463684,972.622742 987.811340,978.730408 999.677124,979.228149 
	C1011.501221,979.724121 1020.683533,974.703186 1026.534546,964.463562 
	C1032.493164,954.035461 1032.076660,943.283020 1025.403564,933.409485 
	C1018.861206,923.729187 1009.321045,919.210388 997.512939,920.717773 
	C977.602905,923.259521 966.962219,941.712463 974.122375,962.176453 
z"/>
<path fill="#121A22" opacity="1.000000" stroke="none" 
	d="
M696.002075,1162.874268 
	C690.858154,1156.456299 687.169861,1149.380859 685.548340,1141.216675 
	C681.003845,1118.335449 681.008789,1095.880615 692.218567,1074.670288 
	C701.024597,1058.008179 714.747375,1048.171631 733.982056,1049.304932 
	C742.351685,1049.798096 750.601501,1053.365112 758.767090,1055.970581 
	C766.029419,1058.287842 772.995850,1061.546631 780.280945,1063.775024 
	C790.355103,1066.856567 799.994324,1063.459839 809.526855,1060.638550 
	C822.751343,1056.724731 835.726379,1051.825073 849.117188,1048.650879 
	C867.429932,1044.309937 884.527771,1047.920654 897.464417,1062.245239 
	C910.116272,1076.254517 915.907166,1092.938721 913.373047,1112.312012 
	C912.581848,1118.361206 913.493713,1125.004395 915.194763,1130.924683 
	C917.999695,1140.686890 927.282837,1142.980591 935.588013,1145.904785 
	C941.849060,1148.109497 948.404602,1149.572266 954.473389,1152.189819 
	C957.697388,1153.580322 960.164795,1156.724976 962.612183,1159.431641 
	C939.038086,1152.989014 915.014954,1151.979004 891.172058,1151.300781 
	C863.240601,1150.506226 835.226013,1151.135010 807.294861,1152.291382 
	C784.359436,1153.240723 761.475403,1155.674072 738.602905,1157.816162 
	C724.369568,1159.149414 710.200195,1161.164917 696.002075,1162.874268 
M715.506104,1143.996094 
	C739.174133,1141.559937 762.844543,1139.146606 786.509705,1136.682617 
	C822.509521,1132.934326 858.593811,1131.958618 894.751282,1133.300903 
	C897.023804,1133.385254 899.294434,1133.517334 902.003418,1133.648315 
	C902.003418,1129.487061 901.791382,1125.674194 902.041626,1121.891846 
	C902.930725,1108.456665 901.781372,1095.245972 896.916016,1082.649902 
	C892.642212,1071.585205 886.265869,1062.328857 873.801392,1058.897949 
	C864.940369,1056.458862 856.800354,1058.937256 848.706604,1061.772705 
	C831.339294,1067.857300 813.795959,1073.554321 796.821655,1080.606201 
	C784.719727,1085.633911 775.118164,1084.370972 764.932861,1076.010620 
	C755.766235,1068.486450 745.841125,1061.476562 733.461853,1059.406616 
	C723.841553,1057.797974 712.396912,1061.057983 706.692383,1070.849731 
	C699.619934,1082.989868 697.015076,1096.416748 695.220459,1109.908813 
	C693.770691,1120.808960 694.115784,1131.948730 693.699524,1142.983643 
	C693.653076,1144.213989 693.834167,1145.452881 693.908142,1146.661865 
	C701.125000,1145.750732 707.863953,1144.899902 715.506104,1143.996094 
z"/>
<path fill="#131A21" opacity="1.000000" stroke="none" 
	d="
M1166.498535,1479.904541 
	C1159.762573,1465.403198 1153.224731,1450.873535 1147.091919,1436.174927 
	C1145.541016,1432.457886 1143.590820,1431.439697 1139.714111,1431.474731 
	C1117.065918,1431.678955 1094.415161,1431.587524 1071.765259,1431.595703 
	C1069.963745,1431.596313 1068.162109,1431.595825 1065.299438,1431.595825 
	C1086.905151,1382.352173 1108.220337,1333.770508 1129.994141,1284.143799 
	C1133.287354,1291.358521 1136.172485,1297.584229 1138.979126,1303.844971 
	C1148.479248,1325.037109 1157.912964,1346.259033 1167.444702,1367.436890 
	C1177.015503,1388.701782 1186.665771,1409.931030 1196.295410,1431.169434 
	C1204.398315,1449.040894 1212.532837,1466.898071 1220.633423,1484.770508 
	C1230.192627,1505.861084 1239.705078,1526.972778 1249.285645,1548.053589 
	C1256.534058,1564.003052 1263.857666,1579.918579 1271.195068,1596.197754 
	C1266.923462,1598.258911 1265.363159,1594.596069 1263.199707,1592.310669 
	C1253.173950,1581.720215 1247.717896,1568.463745 1241.729004,1555.493530 
	C1234.003418,1538.761963 1225.893677,1522.206665 1218.255615,1505.436035 
	C1202.955933,1471.843628 1187.883301,1438.147827 1172.679321,1404.511841 
	C1164.117065,1385.569580 1155.677368,1366.567139 1146.740967,1347.802002 
	C1144.445435,1342.981567 1141.094971,1338.263794 1137.129761,1334.733887 
	C1131.516724,1329.737427 1124.717529,1330.778931 1121.037109,1337.275391 
	C1114.588745,1348.657471 1108.734253,1360.403809 1103.182617,1372.255981 
	C1099.531128,1380.051392 1096.221069,1388.122437 1093.873047,1396.386719 
	C1090.100586,1409.664551 1094.311523,1416.280762 1107.639526,1419.300903 
	C1113.113892,1420.541382 1118.720825,1421.298096 1124.306396,1421.929321 
	C1147.586548,1424.560303 1164.768066,1440.866699 1169.033813,1464.312378 
	C1170.035278,1469.816650 1170.568970,1475.064941 1166.498535,1479.904541 
z"/>
<path fill="#FAFAFB" opacity="1.000000" stroke="none" 
	d="
M695.610229,1163.004272 
	C710.200195,1161.164917 724.369568,1159.149414 738.602905,1157.816162 
	C761.475403,1155.674072 784.359436,1153.240723 807.294861,1152.291382 
	C835.226013,1151.135010 863.240601,1150.506226 891.172058,1151.300781 
	C915.014954,1151.979004 939.038086,1152.989014 962.624268,1159.786865 
	C978.749146,1167.269897 982.642090,1170.007080 989.731323,1178.689209 
	C981.540527,1177.012695 973.652832,1174.807251 965.617188,1173.870728 
	C945.979309,1171.582031 926.289917,1168.442017 906.591125,1168.211548 
	C847.009583,1167.514526 787.411133,1167.733643 727.824951,1168.251587 
	C707.220886,1168.430542 686.633606,1170.535522 666.038452,1171.756714 
	C663.390686,1171.913696 660.741455,1172.046265 658.092896,1172.190186 
	C657.997620,1171.691895 657.902344,1171.193481 657.807068,1170.695190 
	C670.277527,1168.174927 682.747925,1165.654663 695.610229,1163.004272 
z"/>
<path fill="#EBE1C8" opacity="1.000000" stroke="none" 
	d="
M1213.552490,931.004517 
	C1213.994507,942.687195 1213.993652,954.277832 1213.992432,966.322876 
	C1187.753052,967.318176 1161.514160,967.859253 1134.904785,968.407959 
	C1134.904785,954.930664 1134.904785,941.917114 1134.904785,928.335571 
	C1161.061768,929.197449 1187.085571,930.054993 1213.552490,931.004517 
z"/>
<path fill="#EAE0C8" opacity="1.000000" stroke="none" 
	d="
M792.469238,966.866211 
	C792.005188,955.193665 792.003235,943.600952 792.002441,931.544922 
	C818.039551,930.135193 844.075500,929.188782 870.436523,928.230591 
	C870.436523,941.672852 870.436523,954.557556 870.436523,966.946045 
	C844.594727,966.946045 818.763062,966.946045 792.469238,966.866211 
z"/>
<path fill="#FAFAFB" opacity="1.000000" stroke="none" 
	d="
M655.491516,1172.505615 
	C655.510071,1172.518921 655.472961,1172.492310 655.491516,1172.505615 
z"/>
<path fill="#15202A" opacity="1.000000" stroke="none" 
	d="
M973.985718,961.815430 
	C966.962219,941.712463 977.602905,923.259521 997.512939,920.717773 
	C1009.321045,919.210388 1018.861206,923.729187 1025.403564,933.409485 
	C1032.076660,943.283020 1032.493164,954.035461 1026.534546,964.463562 
	C1020.683533,974.703186 1011.501221,979.724121 999.677124,979.228149 
	C987.811340,978.730408 979.463684,972.622742 973.985718,961.815430 
z"/>
<path fill="#FEFEFE" opacity="1.000000" stroke="none" 
	d="
M715.054565,1144.022705 
	C707.863953,1144.899902 701.125000,1145.750732 693.908142,1146.661865 
	C693.834167,1145.452881 693.653076,1144.213989 693.699524,1142.983643 
	C694.115784,1131.948730 693.770691,1120.808960 695.220459,1109.908813 
	C697.015076,1096.416748 699.619934,1082.989868 706.692383,1070.849731 
	C712.396912,1061.057983 723.841553,1057.797974 733.461853,1059.406616 
	C745.841125,1061.476562 755.766235,1068.486450 764.932861,1076.010620 
	C775.118164,1084.370972 784.719727,1085.633911 796.821655,1080.606201 
	C813.795959,1073.554321 831.339294,1067.857300 848.706604,1061.772705 
	C856.800354,1058.937256 864.940369,1056.458862 873.801392,1058.897949 
	C886.265869,1062.328857 892.642212,1071.585205 896.916016,1082.649902 
	C901.781372,1095.245972 902.930725,1108.456665 902.041626,1121.891846 
	C901.791382,1125.674194 902.003418,1129.487061 902.003418,1133.648315 
	C899.294434,1133.517334 897.023804,1133.385254 894.751282,1133.300903 
	C858.593811,1131.958618 822.509521,1132.934326 786.509705,1136.682617 
	C762.844543,1139.146606 739.174133,1141.559937 715.054565,1144.022705 
z"/>
</svg>